<svg width="24" height="24" viewBox="0 0 24 24" fill="none" xmlns="http://www.w3.org/2000/svg">
<path opacity="0.2" fill-rule="evenodd" clip-rule="evenodd" d="M2.25 21C2.25 20.5858 2.58579 20.25 3 20.25H21C21.4142 20.25 21.75 20.5858 21.75 21C21.75 21.4142 21.4142 21.75 21 21.75H3C2.58579 21.75 2.25 21.4142 2.25 21Z" fill="black"/>
<path d="M7.31963 17.9881L10.7523 17.4977C11.2475 17.427 11.7064 17.1976 12.06 16.8439L18.6883 10.2156C18.6883 10.2156 17.0537 10.2156 15.419 8.58102C13.7844 6.94639 13.7844 5.31177 13.7844 5.31177L7.15616 11.94C6.80248 12.2937 6.57305 12.7526 6.50231 13.2477L6.01193 16.6804C5.90295 17.4433 6.5568 18.0971 7.31963 17.9881Z" fill="black"/>
<path opacity="0.2" d="M15.4198 8.58103C13.7852 6.9464 13.7852 5.31178 13.7852 5.31178L14.6584 4.43921L14.6584 4.43921C15.4432 3.65494 15.8357 3.2628 16.2797 3.09558C16.7798 2.90724 17.3313 2.90735 17.8313 3.09588C18.2753 3.26328 18.6675 3.65557 19.4521 4.44014C20.2726 5.26064 20.6828 5.67089 20.8578 6.13516C21.0549 6.65803 21.0549 7.23476 20.8578 7.75763C20.6828 8.22189 20.2725 8.63214 19.4521 9.45263L18.689 10.2157C18.689 10.2157 17.0544 10.2157 15.4198 8.58103Z" fill="black"/>
</svg>
