<svg width="28" height="28" viewBox="0 0 28 28" fill="none" xmlns="http://www.w3.org/2000/svg">
<path opacity="0.2" d="M11.3739 23.625L9.62391 10.5L4.93172 9.15472C4.78445 9.11525 4.62949 9.11445 4.48183 9.15239C4.33416 9.19034 4.19879 9.26576 4.0888 9.37135C3.97882 9.47693 3.89794 9.60912 3.854 9.75511C3.81006 9.9011 3.80454 10.056 3.83797 10.2047L6.83484 22.9469C6.88115 23.1388 6.99024 23.3098 7.1448 23.4327C7.29936 23.5555 7.49054 23.6232 7.68797 23.625H11.3739Z" fill="#FF9500"/>
<path opacity="0.2" d="M20.3109 23.625C20.5084 23.6232 20.6995 23.5555 20.8541 23.4327C21.0087 23.3098 21.1178 23.1388 21.1641 22.9469L24.1609 10.2047C24.1944 10.056 24.1888 9.9011 24.1449 9.75511C24.101 9.60912 24.0201 9.47693 23.9101 9.37135C23.8001 9.26576 23.6647 9.19034 23.5171 9.15239C23.3694 9.11445 23.2145 9.11525 23.0672 9.15472L18.375 10.5L16.625 23.625H20.3109Z" fill="#FF9500"/>
<path d="M3.83797 10.2047L6.83484 22.9469C6.88115 23.1389 6.99024 23.3098 7.1448 23.4327C7.29936 23.5555 7.49054 23.6232 7.68797 23.625H20.3098C20.5073 23.6232 20.6984 23.5555 20.853 23.4327C21.0076 23.3098 21.1167 23.1389 21.163 22.9469L24.1598 10.2047C24.1933 10.056 24.1878 9.90112 24.1438 9.75513C24.0999 9.60913 24.019 9.47695 23.909 9.37136C23.799 9.26578 23.6636 9.19036 23.516 9.15241C23.3683 9.11446 23.2134 9.11526 23.0661 9.15474L18.3739 10.5L14.327 8.8813C14.2231 8.83798 14.1115 8.81567 13.9989 8.81567C13.8863 8.81567 13.7748 8.83798 13.6708 8.8813L9.62391 10.5L4.93172 9.15474C4.78445 9.11526 4.62949 9.11446 4.48183 9.15241C4.33416 9.19036 4.19879 9.26578 4.0888 9.37136C3.97882 9.47695 3.89794 9.60913 3.854 9.75513C3.81006 9.90112 3.80454 10.056 3.83797 10.2047V10.2047Z" stroke="#FF9500" stroke-width="1.75" stroke-linecap="round" stroke-linejoin="round"/>
<path d="M9.625 10.5L11.375 23.625" stroke="#FF9500" stroke-width="1.75" stroke-linecap="round" stroke-linejoin="round"/>
<path d="M18.375 10.5L16.625 23.625" stroke="#FF9500" stroke-width="1.75" stroke-linecap="round" stroke-linejoin="round"/>
<path d="M23.625 9.18755C23.6253 8.50791 23.4496 7.83978 23.1151 7.24815C22.7806 6.65653 22.2986 6.16156 21.7161 5.8114C21.1336 5.46124 20.4704 5.26782 19.791 5.24995C19.1116 5.23208 18.4392 5.39037 17.8391 5.70943C17.6505 4.83123 17.1665 4.04422 16.4679 3.47968C15.7693 2.91513 14.8982 2.60718 14 2.60718C13.1018 2.60718 12.2307 2.91513 11.5321 3.47968C10.8335 4.04422 10.3495 4.83123 10.1609 5.70943C9.56084 5.39037 8.88838 5.23208 8.20897 5.24995C7.52957 5.26782 6.86635 5.46124 6.28386 5.8114C5.70136 6.16156 5.21942 6.65653 4.88492 7.24815C4.55042 7.83978 4.37475 8.50791 4.375 9.18755" stroke="#FF9500" stroke-width="1.75" stroke-linecap="round" stroke-linejoin="round"/>
</svg>
