<svg width="26" height="26" viewBox="0 0 26 26" fill="none" xmlns="http://www.w3.org/2000/svg">
<path d="M15.2834 23.8337C17.897 23.8337 19.2038 23.8337 20.2021 23.325C21.0801 22.8776 21.7941 22.1637 22.2415 21.2856C22.7501 20.2874 22.7501 18.9806 22.7501 16.367V10.9965C22.7501 9.68465 22.1655 8.4422 21.1577 7.61239L15.7411 3.15212C14.1459 1.83862 11.8543 1.83862 10.2591 3.15212L4.84246 7.61239C3.83472 8.4422 3.25011 9.68465 3.25011 10.9965L3.25006 16.3669C3.25004 18.9805 3.25003 20.2873 3.75866 21.2856C4.20607 22.1637 4.91998 22.8776 5.79807 23.325C6.79633 23.8337 8.10313 23.8337 10.7167 23.8337H15.2834Z" stroke="#28303F" stroke-width="2.5" stroke-linejoin="round"/>
<path d="M10.8335 19.5H15.1668" stroke="#28303F" stroke-width="2.5" stroke-linecap="round"/>
</svg>
