<svg width="26" height="26" viewBox="0 0 26 26" fill="none" xmlns="http://www.w3.org/2000/svg">
<path d="M14.734 22.8323L20.6492 19.4171C21.2807 19.0526 21.5958 18.8702 21.8254 18.6152C22.0286 18.3896 22.1822 18.1238 22.276 17.835C22.3818 17.5094 22.3818 17.1456 22.3818 16.4198V9.57949C22.3818 8.85376 22.3818 8.48993 22.276 8.16433C22.1822 7.87556 22.0286 7.60956 21.8254 7.38391C21.5968 7.13 21.2824 6.94847 20.6564 6.58705L14.7329 3.16714C14.1015 2.80257 13.7864 2.62065 13.4507 2.5493C13.1537 2.48617 12.8466 2.48617 12.5496 2.5493C12.214 2.62065 11.8978 2.80256 11.2663 3.16714L5.34997 6.58296C4.71925 6.94711 4.40413 7.12904 4.17464 7.38391C3.97147 7.60956 3.81804 7.87556 3.72421 8.16433C3.61816 8.4907 3.61816 8.85547 3.61816 9.58462V16.415C3.61816 17.1441 3.61816 17.5087 3.72421 17.835C3.81804 18.1238 3.97147 18.3896 4.17464 18.6152C4.40427 18.8702 4.71961 19.0526 5.35107 19.4171L11.2663 22.8323C11.8978 23.1969 12.214 23.3789 12.5496 23.4502C12.8466 23.5134 13.1537 23.5134 13.4507 23.4502C13.7863 23.3789 14.1025 23.1969 14.734 22.8323Z" stroke="#C1C1C1" stroke-width="2.5" stroke-linecap="round" stroke-linejoin="round"/>
<path d="M9.75 12.9997C9.75 14.7946 11.2051 16.2497 13 16.2497C14.7949 16.2497 16.25 14.7946 16.25 12.9997C16.25 11.2047 14.7949 9.74966 13 9.74966C11.2051 9.74966 9.75 11.2047 9.75 12.9997Z" stroke="#C1C1C1" stroke-width="2.5" stroke-linecap="round" stroke-linejoin="round"/>
</svg>
