<svg width="24" height="24" viewBox="0 0 24 24" fill="none" xmlns="http://www.w3.org/2000/svg">
<path d="M6.94028 2C7.35614 2 7.69326 2.32421 7.69326 2.72414V4.18487C8.36117 4.17241 9.10983 4.17241 9.95219 4.17241H13.9681C14.8104 4.17241 15.5591 4.17241 16.227 4.18487V2.72414C16.227 2.32421 16.5641 2 16.98 2C17.3958 2 17.733 2.32421 17.733 2.72414V4.24894C20.0896 4.24894 22 6.15936 22 8.51597V9H2L2.00012 8.4352C2.00063 6.12304 3.87515 4.24894 6.1873 4.24894V2.72414C6.1873 2.32421 6.52442 2 6.94028 2Z" fill="black"/>
<path opacity="0.2" d="M14.3504 22.0001C17.2964 22.0001 18.7695 22.0001 19.8516 21.337C20.4571 20.9659 20.9662 20.4568 21.3372 19.8513C22.0004 18.7692 22.0004 17.2962 22.0004 14.3501V12.0001C22.0004 11.161 21.9971 9.66527 21.9842 9H2.01001C1.99711 9.66527 2.00037 11.161 2.00037 12.0001L2.00044 14.3503C2.00053 17.2963 2.00058 18.7693 2.66371 19.8514C3.03476 20.4569 3.54385 20.966 4.14934 21.337C5.23144 22.0001 6.70444 22.0001 9.65044 22.0001H14.3504Z" fill="black"/>
<path d="M18 13C18 13.5523 17.5523 14 17 14C16.4477 14 16 13.5523 16 13C16 12.4477 16.4477 12 17 12C17.5523 12 18 12.4477 18 13Z" fill="black"/>
<path d="M13 17C13 17.5523 12.5523 18 12 18C11.4477 18 11 17.5523 11 17C11 16.4477 11.4477 16 12 16C12.5523 16 13 16.4477 13 17Z" fill="black"/>
<path d="M13 13C13 13.5523 12.5523 14 12 14C11.4477 14 11 13.5523 11 13C11 12.4477 11.4477 12 12 12C12.5523 12 13 12.4477 13 13Z" fill="black"/>
<path d="M8 17C8 17.5523 7.55228 18 7 18C6.44772 18 6 17.5523 6 17C6 16.4477 6.44772 16 7 16C7.55228 16 8 16.4477 8 17Z" fill="black"/>
<path d="M8 13C8 13.5523 7.55228 14 7 14C6.44772 14 6 13.5523 6 13C6 12.4477 6.44772 12 7 12C7.55228 12 8 12.4477 8 13Z" fill="black"/>
</svg>
