<svg width="26" height="26" viewBox="0 0 26 26" fill="none" xmlns="http://www.w3.org/2000/svg">
<g clip-path="url(#clip0_1312_4321)">
<path d="M2.16668 6.5L17.4334 6.50023C19.6736 6.50026 20.7937 6.50028 21.6493 6.93626C22.402 7.31976 23.0139 7.93168 23.3974 8.68432C23.8333 9.53996 23.8333 10.6601 23.8333 12.9002V17.4333C23.8333 19.6735 23.8333 20.7936 23.3974 21.6493C23.0139 22.4019 22.402 23.0139 21.6493 23.3974C20.7937 23.8333 19.6736 23.8333 17.4333 23.8333H8.56658C6.32634 23.8333 5.20622 23.8333 4.35057 23.3974C3.59792 23.0139 2.986 22.4019 2.6025 21.6493C2.16653 20.7936 2.16655 19.6735 2.16657 17.4333L2.16668 6.5Z" stroke="#C1C1C1" stroke-width="2.5" stroke-linejoin="round"/>
<path d="M2.1665 6.50033C2.1665 4.10709 4.1066 2.16699 6.49984 2.16699H12.9998C15.3931 2.16699 17.3332 4.10709 17.3332 6.50033H2.1665Z" stroke="#C1C1C1" stroke-width="2.5" stroke-linejoin="round"/>
<path d="M23.8335 13L23.8335 17.3333H19.5002C18.3035 17.3333 17.3335 16.3633 17.3335 15.1667C17.3335 13.97 18.3035 13 19.5002 13L23.8335 13Z" stroke="#C1C1C1" stroke-width="2.5" stroke-linejoin="round"/>
</g>
<defs>
<clipPath id="clip0_1312_4321">
<rect width="26" height="26" fill="white"/>
</clipPath>
</defs>
</svg>
