<svg width="25" height="24" viewBox="0 0 25 24" fill="none" xmlns="http://www.w3.org/2000/svg">
<path d="M11.8061 19.9999C9.57864 19.9999 8.46491 19.9999 7.53521 19.4985C6.60551 18.997 6.01523 18.078 4.83468 16.2399L4.15387 15.1799C3.16067 13.6335 2.66406 12.8603 2.66406 11.9999C2.66406 11.1395 3.16067 10.3663 4.15387 8.81991L4.83468 7.75991C6.01523 5.92182 6.60551 5.00277 7.53521 4.50134C8.46491 3.99991 9.57864 3.99991 11.8061 3.99991L15.864 3.99985C18.4827 3.99981 19.7921 3.9998 20.754 4.58923C21.2923 4.91905 21.7448 5.37158 22.0746 5.9098C22.6641 6.87168 22.6641 8.18103 22.6641 10.7997C22.6641 11.6019 22.6641 12.4118 22.6641 13.2009C22.6641 15.819 22.6641 17.128 22.0746 18.0899C21.7448 18.6281 21.2923 19.0806 20.7541 19.4105C19.7922 19.9999 18.4828 19.9999 15.8641 19.9999H11.8061Z" stroke="black" stroke-width="2"/>
<path d="M16.164 9.50002L11.1641 14.5M11.164 9.5L16.164 14.5" stroke="black" stroke-width="2" stroke-linecap="round"/>
</svg>
